<?xml version="1.0" encoding="UTF-8"?>
<!-- Generator: Adobe Illustrator 19.2.0, SVG Export Plug-In . SVG Version: 6.00 Build 0)  -->
<!DOCTYPE svg PUBLIC "-//W3C//DTD SVG 1.1//EN" "http://www.w3.org/Graphics/SVG/1.1/DTD/svg11.dtd">
<svg xmlns="http://www.w3.org/2000/svg" xmlns:xlink="http://www.w3.org/1999/xlink" xmlns:dc="http://purl.org/dc/elements/1.1/" xmlns:cc="http://creativecommons.org/ns#" xmlns:rdf="http://www.w3.org/1999/02/22-rdf-syntax-ns#" version="1.1" id="DESIGNS" x="0px" y="0px" width="32px" height="32px" viewBox="0 0 32 32" style="enable-background:new 0 0 32 32;" xml:space="preserve">
<title property="dc:title">to search</title><desc property="dc:description">An icon for "search" from the Hatch series on to [icon]. Downloaded from http://www.toicon.com/icons/hatch_search by 99.28.92.149 on 2018-04-29. Licensed CC-BY, see http://toicon.com/license/ for details.</desc>
<g>
	<path class="hatch_twee" d="M28.071,26.242l0.707,0.707l-2.828,2.828l-0.707-0.707L28.071,26.242z M23.242,27.071l0.707,0.707   l2.828-2.828l-0.707-0.707L23.242,27.071z M17.242,21.071l0.707,0.707l2.828-2.828l-0.707-0.707L17.242,21.071z M19.242,23.071   l0.707,0.707l2.828-2.828l-0.707-0.707L19.242,23.071z M21.242,25.071l0.707,0.707l2.828-2.828l-0.707-0.707L21.242,25.071z" style="fill: #FFC5BB;"/>
	<path class="hatch_een" d="M30.193,26.95L19.738,16.495C20.561,14.979,21,13.274,21,11.5c0-2.805-1.092-5.441-3.075-7.425   C15.941,2.092,13.305,1,10.5,1C7.695,1,5.059,2.092,3.075,4.075C1.092,6.059,0,8.695,0,11.5c0,2.805,1.092,5.441,3.075,7.425   C5.059,20.908,7.695,22,10.5,22c1.774,0,3.479-0.439,4.995-1.262L25.95,31.193c0.195,0.195,0.451,0.293,0.707,0.293   c0.256,0,0.512-0.098,0.707-0.293l2.828-2.828c0.188-0.188,0.293-0.442,0.293-0.707S30.38,27.138,30.193,26.95z M3.782,18.217   c-3.71-3.71-3.71-9.725,0-13.435C5.638,2.927,8.069,2,10.5,2s4.863,0.927,6.718,2.782c3.71,3.71,3.71,9.725,0,13.435   C15.363,20.073,12.931,21,10.5,21S5.638,20.073,3.782,18.217z M26.657,30.486L16.375,20.203c0.55-0.373,1.07-0.798,1.55-1.278   s0.906-1,1.278-1.55l10.283,10.283L26.657,30.486z" style="fill: #265AA5;"/>
</g>
<metadata><work rdf:about=""><format>image/svg+xml</format><type rdf:resource="http://purl.org/dc/dcmitype/StillImage"/><license rdf:resource="http://creativecommons.org/licenses/by/4.0/"/><attributionname>Carol Liao</attributionname><attributionurl>http://www.toicon.com/icons/hatch_search</attributionurl></work></metadata></svg>
