<?xml version="1.0" encoding="UTF-8"?>
<!-- Generator: Adobe Illustrator 21.1.0, SVG Export Plug-In . SVG Version: 6.00 Build 0)  -->
<svg xmlns="http://www.w3.org/2000/svg" xmlns:xlink="http://www.w3.org/1999/xlink" xmlns:dc="http://purl.org/dc/elements/1.1/" xmlns:cc="http://creativecommons.org/ns#" xmlns:rdf="http://www.w3.org/1999/02/22-rdf-syntax-ns#" version="1.1" id="DESIGNS" x="0px" y="0px" viewBox="0 0 32 32" style="enable-background:new 0 0 32 32;" xml:space="preserve">
<title property="dc:title">to hide</title><desc property="dc:description">An icon for "hide" from the Hatch series on to [icon]. Downloaded from http://www.toicon.com/icons/hatch_hide by 99.28.92.149 on 2018-04-29. Licensed CC-BY, see http://toicon.com/license/ for details.</desc>
<path class="hatch_twee" d="M25.952,10.811c0.262,0.221,0.509,0.445,0.745,0.669L15.099,23.078c-0.46-0.011-0.902-0.04-1.337-0.077  L25.952,10.811z M17.776,22.987c0.567-0.055,1.116-0.131,1.64-0.226l9.171-9.171c-0.192-0.252-0.393-0.522-0.623-0.791  L17.776,22.987z M10.354,22.409c0.368,0.099,0.749,0.191,1.142,0.272l12.99-12.99c-0.281-0.187-0.577-0.359-0.88-0.534  L10.354,22.409z M23.062,21.7c1.261-0.489,2.174-1.04,3.027-1.613l4.053-4.053c-0.043-0.091-0.206-0.415-0.504-0.91L23.062,21.7z   M18.809,7.368c-0.397-0.076-0.815-0.131-1.236-0.178L4.903,19.86c0.268,0.19,0.556,0.372,0.856,0.558L18.809,7.368z M7.426,21.337  c0.315,0.149,0.648,0.289,0.989,0.425L21.872,8.305c-0.331-0.139-0.664-0.277-1.018-0.396L7.426,21.337z M7.441,9.322l-5.673,5.673  c-0.411,0.666-0.601,1.088-0.601,1.088s0.13,0.214,0.378,0.549l8.605-8.605C9.149,8.394,8.261,8.821,7.441,9.322z M13.545,7.218  L2.744,18.019c0.217,0.222,0.454,0.456,0.72,0.694L15.079,7.098C14.557,7.116,14.034,7.157,13.545,7.218z" style="fill: #FFC5BB;"/>
<path class="hatch_een" d="M31.354,21.727l-2.486-2.562c1.411-1.339,2.092-2.458,2.161-2.575c0.165-0.281,0.183-0.626,0.047-0.923  c-0.179-0.391-4.509-9.584-15.409-9.584s-15.23,9.193-15.409,9.584c-0.136,0.297-0.118,0.641,0.047,0.923  c0.074,0.126,0.867,1.416,2.509,2.889l-2.248,2.247c-0.195,0.195-0.195,0.512,0,0.707c0.098,0.098,0.226,0.146,0.354,0.146  s0.256-0.049,0.354-0.146l2.309-2.309c0.917,0.729,2.04,1.461,3.39,2.1l-1.887,2.831c-0.153,0.23-0.091,0.54,0.139,0.693  c0.085,0.057,0.182,0.084,0.277,0.084c0.161,0,0.319-0.078,0.416-0.223l1.987-2.98c1.341,0.545,2.879,0.977,4.627,1.223  l-1.118,3.354c-0.087,0.262,0.055,0.545,0.316,0.632c0.053,0.018,0.105,0.026,0.158,0.026c0.209,0,0.404-0.132,0.475-0.342  l1.18-3.542c0.681,0.063,1.385,0.102,2.125,0.102c0.951,0,1.834-0.072,2.687-0.173l1.204,3.613c0.07,0.209,0.266,0.342,0.475,0.342  c0.053,0,0.105-0.008,0.158-0.026c0.262-0.087,0.403-0.37,0.316-0.632l-1.141-3.425c1.72-0.288,3.226-0.764,4.534-1.338l2.103,3.167  c0.097,0.145,0.255,0.223,0.416,0.223c0.096,0,0.192-0.027,0.277-0.084c0.229-0.153,0.292-0.463,0.139-0.693l-2.033-3.048  c1.312-0.666,2.405-1.415,3.28-2.146c0.006,0.007,0.009,0.017,0.016,0.023l2.549,2.548c0.098,0.098,0.226,0.146,0.354,0.146  s0.256-0.049,0.354-0.146C31.549,22.239,31.549,21.922,31.354,21.727z M1.167,16.083c0,0,4.116-9,14.5-9c10.384,0,14.5,9,14.5,9  s-4.116,7-14.5,7C5.283,23.083,1.167,16.083,1.167,16.083z" style="fill: #265AA5;"/>
<metadata><work rdf:about=""><format>image/svg+xml</format><type rdf:resource="http://purl.org/dc/dcmitype/StillImage"/><license rdf:resource="http://creativecommons.org/licenses/by/4.0/"/><attributionname>Carol Liao</attributionname><attributionurl>http://www.toicon.com/icons/hatch_hide</attributionurl></work></metadata></svg>
