<?xml version="1.0" encoding="UTF-8"?>
<!-- Generator: Adobe Illustrator 19.2.0, SVG Export Plug-In . SVG Version: 6.00 Build 0)  -->
<!DOCTYPE svg PUBLIC "-//W3C//DTD SVG 1.1//EN" "http://www.w3.org/Graphics/SVG/1.1/DTD/svg11.dtd">
<svg xmlns="http://www.w3.org/2000/svg" xmlns:xlink="http://www.w3.org/1999/xlink" xmlns:dc="http://purl.org/dc/elements/1.1/" xmlns:cc="http://creativecommons.org/ns#" xmlns:rdf="http://www.w3.org/1999/02/22-rdf-syntax-ns#" version="1.1" id="DESIGNS" x="0px" y="0px" width="32px" height="32px" viewBox="0 0 32 32" style="enable-background:new 0 0 32 32;" xml:space="preserve">
<title property="dc:title">to be</title><desc property="dc:description">An icon for "be" from the Hatch series on to [icon]. Downloaded from http://www.toicon.com/icons/hatch_be by 99.28.92.149 on 2018-04-29. Licensed CC-BY, see http://toicon.com/license/ for details.</desc>
<g>
	<path class="hatch_twee" d="M23.606,15.768c0.035,0.43,0.088,0.851,0.158,1.26l-2.927,2.927c-0.44-0.021-0.884-0.053-1.312-0.103   L23.606,15.768z M10.792,30l8.169-8.169l-0.238-1.176L9.378,30H10.792z M17.378,30h1.414l5.303-5.303   c-0.303-0.196-0.634-0.342-0.991-0.423L17.378,30z M13.378,30h1.414l6.095-6.095l-1.215-0.199L13.378,30z M24.856,19.884   c-0.193-0.268-0.359-0.554-0.501-0.861l-0.941,0.94C24.271,19.934,24.856,19.884,24.856,19.884z M25.378,30h1.414l1.164-1.164   l-0.669-0.745L25.378,30z M21.378,30h1.414l3.273-3.273l-0.669-0.745L21.378,30z M21.109,3.685   c-0.236-0.224-0.497-0.435-0.783-0.634l-12.96,12.96c-0.056,0.584-0.142,1.151-0.273,1.687L21.109,3.685z M22.744,6.047   c-0.14-0.31-0.297-0.626-0.482-0.93L7.42,19.958c0.403,0.016,0.875,0.028,1.386,0.028L22.744,6.047z M5.378,30h1.414L23.54,13.251   c0.004-0.483,0.012-0.964,0.02-1.435L5.378,30z M18.547,2.245c-0.394-0.086-0.821-0.141-1.236-0.178l-9.87,9.87   c0.008,0.459,0.016,0.926,0.019,1.395L18.547,2.245z M11.533,19.844c0.324-0.039,0.64-0.087,0.937-0.148l-0.158,0.783L23.538,9.254   c-0.027-0.454-0.069-0.885-0.144-1.272L11.533,19.844z M14.785,2.006c-0.445,0.01-0.982,0.041-1.521,0.107l-5.6,5.602   c-0.119,0.483-0.176,1.018-0.208,1.62L14.785,2.006z M8.089,24.236c-0.691,0.113-1.322,0.456-1.791,0.972L2,30h0.792l5.855-5.855   L8.089,24.236z" style="fill: #FFC5BB;"/>
	<path class="hatch_een" d="M15.751,2c0.926,0,2.779,0.066,3.755,0.561c2.309,1.172,3.248,3.184,3.761,4.897   c0.904,3.018-0.712,9.244,1.589,12.426c0,0-1.191,0.102-2.682,0.102c-1.174,0-2.535-0.063-3.644-0.29l0.799,3.954l3.582,0.586   c0.691,0.113,1.322,0.456,1.791,0.972L29,30H2l4.299-4.792c0.469-0.516,1.1-0.859,1.791-0.972l3.582-0.586l0.799-3.954   c-1.11,0.227-2.47,0.29-3.644,0.29c-1.491,0-2.682-0.102-2.682-0.102c2.301-3.181,0.685-9.408,1.589-12.426   c0.513-1.713,1.452-3.725,3.761-4.897C12.47,2.066,14.323,2,15.249,2H15.751z M15.249,1c-1.318,0-3.117,0.116-4.207,0.67   c-2.767,1.405-3.76,3.813-4.266,5.502c-0.397,1.324-0.365,3.071-0.332,4.92c0.047,2.594,0.1,5.534-1.11,7.207   c-0.211,0.292-0.249,0.675-0.099,1.003c0.15,0.328,0.465,0.549,0.824,0.58c0.05,0.004,1.251,0.106,2.767,0.106   c0.877,0,1.674-0.034,2.384-0.101l-0.382,1.89l-2.9,0.474c-0.91,0.149-1.752,0.606-2.37,1.286l-4.303,4.796   c-0.264,0.294-0.33,0.715-0.169,1.075C1.248,30.768,1.605,31,2,31h27c0.395,0,0.752-0.232,0.913-0.592   c0.161-0.36,0.095-0.782-0.169-1.075l-4.299-4.792c-0.622-0.685-1.464-1.142-2.374-1.291l-2.9-0.474l-0.382-1.89   c0.709,0.067,1.506,0.101,2.384,0.101c1.516,0,2.717-0.101,2.767-0.106c0.359-0.031,0.674-0.252,0.824-0.58   s0.112-0.711-0.099-1.003c-1.21-1.672-1.157-4.613-1.11-7.207c0.033-1.849,0.065-3.596-0.332-4.92   c-0.506-1.689-1.499-4.097-4.266-5.502C18.868,1.116,17.069,1,15.751,1H15.249z" style="fill: #265AA5;"/>
</g>
<metadata><work rdf:about=""><format>image/svg+xml</format><type rdf:resource="http://purl.org/dc/dcmitype/StillImage"/><license rdf:resource="http://creativecommons.org/licenses/by/4.0/"/><attributionname>Carol Liao</attributionname><attributionurl>http://www.toicon.com/icons/hatch_be</attributionurl></work></metadata></svg>
