<?xml version="1.0" encoding="UTF-8"?>
<!-- Generator: Adobe Illustrator 19.2.0, SVG Export Plug-In . SVG Version: 6.00 Build 0)  -->
<!DOCTYPE svg PUBLIC "-//W3C//DTD SVG 1.1//EN" "http://www.w3.org/Graphics/SVG/1.1/DTD/svg11.dtd">
<svg xmlns="http://www.w3.org/2000/svg" xmlns:xlink="http://www.w3.org/1999/xlink" xmlns:dc="http://purl.org/dc/elements/1.1/" xmlns:cc="http://creativecommons.org/ns#" xmlns:rdf="http://www.w3.org/1999/02/22-rdf-syntax-ns#" version="1.1" id="DESIGNS" x="0px" y="0px" width="32px" height="32px" viewBox="0 0 32 32" style="enable-background:new 0 0 32 32;" xml:space="preserve">
<title property="dc:title">to send</title><desc property="dc:description">An icon for "send" from the Hatch series on to [icon]. Downloaded from http://www.toicon.com/icons/hatch_send by 99.28.92.149 on 2018-04-29. Licensed CC-BY, see http://toicon.com/license/ for details.</desc>
<g>
	<path class="hatch_twee" d="M2.954,7.953L2.247,7.246L3.493,6h1.414L2.954,7.953z M8.907,6H7.493L4.247,9.246l0.707,0.707L8.907,6z    M14.247,19.246l0.707,0.707L28.907,6h-1.414L14.247,19.246z M24.907,6h-1.414L12.247,17.246l0.707,0.707L24.907,6z M20.907,6   h-1.414l-9.246,9.246l0.707,0.707L20.907,6z M12.907,6h-1.414l-5.246,5.246l0.707,0.707L12.907,6z M16.907,6h-1.414l-7.246,7.246   l0.707,0.707L16.907,6z" style="fill: #FFC5BB;"/>
	<path class="hatch_een" d="M31.992,5.969c-0.004-0.119-0.021-0.238-0.068-0.352C31.769,5.244,31.404,5,31,5H1   C0.596,5,0.231,5.244,0.076,5.617C0.029,5.732,0.011,5.852,0.008,5.972C0.007,5.983,0,27,0,27c0,0.552,0.448,1,1,1h30   c0.552,0,1-0.448,1-1C32,27,31.993,5.981,31.992,5.969z M21.563,16.852L31,7.414V26.29L21.563,16.852z M30.296,27H1.707   l9.439-9.439l4.146,4.146C15.488,21.902,15.744,22,16,22s0.512-0.098,0.707-0.293l4.148-4.148L30.296,27z M16,21L1,6h30L16,21z    M10.439,16.854L1,26.293V7.414L10.439,16.854z" style="fill: #265AA5;"/>
</g>
<metadata><work rdf:about=""><format>image/svg+xml</format><type rdf:resource="http://purl.org/dc/dcmitype/StillImage"/><license rdf:resource="http://creativecommons.org/licenses/by/4.0/"/><attributionname>Carol Liao</attributionname><attributionurl>http://www.toicon.com/icons/hatch_send</attributionurl></work></metadata></svg>
