<?xml version="1.0" encoding="UTF-8"?>
<!-- Generator: Adobe Illustrator 19.2.0, SVG Export Plug-In . SVG Version: 6.00 Build 0)  -->
<!DOCTYPE svg PUBLIC "-//W3C//DTD SVG 1.1//EN" "http://www.w3.org/Graphics/SVG/1.1/DTD/svg11.dtd">
<svg xmlns="http://www.w3.org/2000/svg" xmlns:xlink="http://www.w3.org/1999/xlink" xmlns:dc="http://purl.org/dc/elements/1.1/" xmlns:cc="http://creativecommons.org/ns#" xmlns:rdf="http://www.w3.org/1999/02/22-rdf-syntax-ns#" version="1.1" id="DESIGNS" x="0px" y="0px" width="32px" height="32px" viewBox="0 0 32 32" style="enable-background:new 0 0 32 32;" xml:space="preserve">
<title property="dc:title">to broadcast</title><desc property="dc:description">An icon for "broadcast" from the Hatch series on to [icon]. Downloaded from http://www.toicon.com/icons/hatch_broadcast by 99.28.92.149 on 2018-04-29. Licensed CC-BY, see http://toicon.com/license/ for details.</desc>
<g>
	<path class="hatch_twee" d="M20,13.293v1.414l-6.717,6.717c-0.297-0.168-0.571-0.366-0.822-0.594L20,13.293z M20,10.707V9.293   l-8.938,8.939c0.062,0.384,0.167,0.747,0.32,1.091L20,10.707z M15.702,3.005C15.638,3.003,15.564,3,15.5,3   c-0.519,0-0.998,0.093-1.462,0.255l-2.788,2.788C11.087,6.508,11,6.981,11,7.5v0.207L15.702,3.005z M15.293,21.996   C15.356,21.999,15.436,22,15.5,22c0.519,0,0.976-0.073,1.44-0.235l2.825-2.825C19.927,18.475,20,18.019,20,17.5v-0.207   L15.293,21.996z M18.521,4.186c-0.25-0.228-0.527-0.422-0.824-0.59L11,10.293v1.414L18.521,4.186z M19.937,6.77   c-0.062-0.384-0.173-0.742-0.326-1.087L11,14.293v1.414L19.937,6.77z" style="fill: #FFC5BB;"/>
	<path class="hatch_een" d="M20,7.5v10c0,2.485-2.015,4.5-4.5,4.5S11,19.985,11,17.5v-10C11,5.015,13.118,3,15.5,3S20,5.015,20,7.5z    M10,7.5v10c0,3.033,2.467,5.5,5.5,5.5s5.5-2.467,5.5-5.5v-10C21,4.467,18.531,2,15.5,2S10,4.467,10,7.5z M23,17v-1.483   c0-0.276-0.224-0.5-0.5-0.5s-0.5,0.224-0.5,0.5V17c0,3.898-2.612,7-6.5,7S9,21.381,9,17.483V15.5C9,15.224,8.776,15,8.5,15   S8,15.224,8,15.5v1.983c0,4.255,2.855,7.269,7,7.495V27h-3.5c-1.654,0-3,1.346-3,3c0,0.552,0.448,1,1,1h12c0.552,0,1-0.448,1-1   c0-1.654-1.346-3-3-3H16v-2.022C20.145,24.752,23,21.255,23,17z M21.5,30h-12c0-1.105,0.895-2,2-2h8C20.605,28,21.5,28.895,21.5,30   z" style="fill: #265AA5;"/>
</g>
<metadata><work rdf:about=""><format>image/svg+xml</format><type rdf:resource="http://purl.org/dc/dcmitype/StillImage"/><license rdf:resource="http://creativecommons.org/licenses/by/4.0/"/><attributionname>Carol Liao</attributionname><attributionurl>http://www.toicon.com/icons/hatch_broadcast</attributionurl></work></metadata></svg>
