<?xml version="1.0" encoding="UTF-8"?>
<!-- Generator: Adobe Illustrator 21.1.0, SVG Export Plug-In . SVG Version: 6.00 Build 0)  -->
<svg xmlns="http://www.w3.org/2000/svg" xmlns:xlink="http://www.w3.org/1999/xlink" xmlns:dc="http://purl.org/dc/elements/1.1/" xmlns:cc="http://creativecommons.org/ns#" xmlns:rdf="http://www.w3.org/1999/02/22-rdf-syntax-ns#" version="1.1" id="DESIGNS" x="0px" y="0px" viewBox="0 0 32 32" style="enable-background:new 0 0 32 32;" xml:space="preserve">
<title property="dc:title">to tap</title><desc property="dc:description">An icon for "tap" from the Hatch series on to [icon]. Downloaded from http://www.toicon.com/icons/hatch_tap by 99.28.92.149 on 2018-04-29. Licensed CC-BY, see http://toicon.com/license/ for details.</desc>
<g>
	<path class="hatch_twee" d="M18.535,24h1.414l-7,7h-1.414L18.535,24z M15.535,31h1.414L22,25.949v-1.414L15.535,31z M19.535,31   h1.414L22,29.949v-1.414L19.535,31z M9,29.535v1.414L15.949,24h-1.414L9,29.535z M9,25.535v1.414L11.949,24h-1.414L9,25.535z" style="fill: #FFC5BB;"/>
	<path class="hatch_een" d="M24.715,13.981l-1.339-2.949l-0.034-0.074l-0.045-0.067c-0.358-0.536-0.947-0.865-1.588-0.889L15,9.122   V3c0-1.6-1.24-2.907-2.831-2.995l0-0.005H12v0.005C10.369,0.094,9,1.457,9,3v9.047l-1.27-1.661l-0.096-0.108   C7.07,9.728,6.326,9.425,5.539,9.425c-0.771,0-1.504,0.292-2.063,0.822l-0.273,0.258c-0.761,0.721-0.837,1.721-0.201,2.674   L9,22.299V23c-0.552,0-1,0.448-1,1v7c0,0.552,0.448,1,1,1h13c0.552,0,1-0.448,1-1v-7c0-0.488-0.356-0.875-0.817-0.963l2.308-3.411   C24.82,19.259,25,18.79,25,18.293V15.01C25,14.645,24.902,14.292,24.715,13.981z M22,31H9v-7h13V31z M24,18.293   c0,0.265-0.105,0.52-0.293,0.707L21,23H10v-1l-6.167-9.375c-0.375-0.562-0.336-1.021,0.057-1.393l0.273-0.258   c0.386-0.366,0.881-0.548,1.375-0.548c0.505,0,1.009,0.19,1.397,0.569L10,15V3c-0.003-1.057,0.923-1.941,2.084-1.998   C13.15,1.046,14,1.924,14,3v7l7.633,1c0.334,0,0.647,0.167,0.832,0.445l1.367,3.01C23.942,14.619,24,14.812,24,15.01V18.293z" style="fill: #265AA5;"/>
</g>
<metadata><work rdf:about=""><format>image/svg+xml</format><type rdf:resource="http://purl.org/dc/dcmitype/StillImage"/><license rdf:resource="http://creativecommons.org/licenses/by/4.0/"/><attributionname>Carol Liao</attributionname><attributionurl>http://www.toicon.com/icons/hatch_tap</attributionurl></work></metadata></svg>
