<?xml version="1.0" encoding="UTF-8"?>
<!-- Generator: Adobe Illustrator 19.2.0, SVG Export Plug-In . SVG Version: 6.00 Build 0)  -->
<!DOCTYPE svg PUBLIC "-//W3C//DTD SVG 1.1//EN" "http://www.w3.org/Graphics/SVG/1.1/DTD/svg11.dtd">
<svg xmlns="http://www.w3.org/2000/svg" xmlns:xlink="http://www.w3.org/1999/xlink" xmlns:dc="http://purl.org/dc/elements/1.1/" xmlns:cc="http://creativecommons.org/ns#" xmlns:rdf="http://www.w3.org/1999/02/22-rdf-syntax-ns#" version="1.1" id="DESIGNS" x="0px" y="0px" width="32px" height="32px" viewBox="0 0 32 32" style="enable-background:new 0 0 32 32;" xml:space="preserve">
<title property="dc:title">to home</title><desc property="dc:description">An icon for "home" from the Hatch series on to [icon]. Downloaded from http://www.toicon.com/icons/hatch_home by 99.28.92.149 on 2018-04-29. Licensed CC-BY, see http://toicon.com/license/ for details.</desc>
<g>
	<path class="hatch_twee" d="M13,27.157v-1.414L15.743,23h1.414L13,27.157z M19,23.743l-6,6V31h0.157L19,25.157V23.743z M26.743,16   h1.414l1.422-1.422l-0.707-0.707L26.743,16z M15.743,31h1.414L19,29.157v-1.414L15.743,31z M18.743,16h1.414l5.422-5.422   l-0.707-0.707L18.743,16z M21.579,6.578l-0.707-0.707L10.743,16h1.414L21.579,6.578z M23.579,8.578l-0.707-0.707L14.743,16h1.414   L23.579,8.578z M2.743,16h1.414L17.579,2.578l-0.707-0.707L2.743,16z M19.579,4.578l-0.707-0.707L6.743,16h1.414L19.579,4.578z    M22.743,16h1.414l3.422-3.422l-0.707-0.707L22.743,16z" style="fill: #FFC5BB;"/>
	<path class="hatch_een" d="M31.707,15.293l-15-15C16.512,0.098,16.256,0,16,0s-0.512,0.098-0.707,0.293l-15,15   c-0.286,0.286-0.372,0.716-0.217,1.09C0.231,16.756,0.596,17,1,17h1v14c0,0.552,0.448,1,1,1h26c0.552,0,1-0.448,1-1V17h1   c0.404,0,0.769-0.244,0.924-0.617C32.079,16.009,31.993,15.579,31.707,15.293z M19,31h-6v-8h6V31z M29,31h-9v-8   c0-0.552-0.448-1-1-1h-6c-0.552,0-1,0.448-1,1v8H3V17h26V31z M1,16L16,1l15,15H1z" style="fill: #265AA5;"/>
</g>
<metadata><work rdf:about=""><format>image/svg+xml</format><type rdf:resource="http://purl.org/dc/dcmitype/StillImage"/><license rdf:resource="http://creativecommons.org/licenses/by/4.0/"/><attributionname>Carol Liao</attributionname><attributionurl>http://www.toicon.com/icons/hatch_home</attributionurl></work></metadata></svg>
